HIERARCHY
ROOT Hips
{
	OFFSET 0.000000 0.000000 0.000000 
	CHANNELS 6 Xposition Yposition Zposition Yrotation Zrotation Xrotation 
	JOINT Lumbar
	{
		OFFSET 0.000000 0.000000 0.000000 
		CHANNELS 3 Zrotation Xrotation Yrotation
		JOINT Neck
		{
			OFFSET 0.000000 0.445665 0.000000 
			CHANNELS 3 Zrotation Xrotation Yrotation
			End Site
			{
				OFFSET 0.000000 0.227535 0.000000 
			}
		}
		JOINT RightShoulder
		{
			OFFSET 0.019635 0.377685 0.194865 
			CHANNELS 3 Zrotation Xrotation Yrotation
			JOINT RightElbow
			{
				OFFSET 0.000000 -0.243375 0.000000 
				CHANNELS 2 Zrotation Yrotation
				JOINT RightWrist
				{
					OFFSET 0.000000 -0.264825 0.000000 
					CHANNELS 2 Zrotation Xrotation
					End Site
					{
						OFFSET 0.006600 -0.176220 0.000990 
					}
				}
			}
		}
		JOINT LeftShoulder
		{
			OFFSET 0.019635 0.377685 -0.194865 
			CHANNELS 3 Zrotation Xrotation Yrotation
			JOINT LeftElbow
			{
				OFFSET 0.000000 -0.243375 0.000000 
				CHANNELS 2 Zrotation Yrotation
				JOINT LeftWrist
				{
					OFFSET 0.000000 -0.264825 0.000000 
					CHANNELS 2 Zrotation Xrotation
					End Site
					{
						OFFSET 0.006600 -0.176220 -0.000990 
					}
				}
			}
		}
	}
	JOINT RightHip
	{
		OFFSET 0.052140 -0.069960 0.075570 
		CHANNELS 3 Zrotation Xrotation Yrotation
		JOINT RightKnee
		{
			OFFSET 0.000000 -0.402270 0.000000 
			CHANNELS 1 Zrotation
			JOINT RightAnkle
			{
				OFFSET 0.000000 -0.404085 0.000000 
				CHANNELS 3 Zrotation Xrotation Yrotation
				End Site
				{
					OFFSET 0.204105 -0.089430 0.008415 
				}
			}
		}
	}
	JOINT LeftHip
	{
		OFFSET 0.052140 -0.069960 -0.075570 
		CHANNELS 3 Zrotation Xrotation Yrotation
		JOINT LeftKnee
		{
			OFFSET 0.000000 -0.402270 0.000000 
			CHANNELS 1 Zrotation
			JOINT LeftAnkle
			{
				OFFSET 0.000000 -0.404085 0.000000 
				CHANNELS 3 Zrotation Xrotation Yrotation
				End Site
				{
					OFFSET 0.204105 -0.089430 -0.008415 
				}
			}
		}
	}
}
MOTION
Frames: 22
Frame Time: 0.02
-0.74963 -0.01356 -0.041 182.36782 -36.26857 -8.06225 41.68781 1.75906 -20.07245 9.27724 0.73614 -2.11994 -5.99028 -72.1633 -24.54004 34.42239 79.57073 9.72698 -3.58454 -7.90215 -0.92647 -54.36264 98.95675 -99.2175 33.81804 0.97804 50.22228 0.03996 -18.17284 -28.09153 -6.64379 -0.52726 -2.50764 26.36804 13.64736 -5.24434 -42.40221 -8.19891 2.55875 3.55616
-0.76112 -0.01186 -0.04381 182.91149 -36.05088 -8.04788 41.38421 1.95926 -19.73648 9.26796 0.33877 -2.11994 -5.76617 -72.24805 -24.43207 34.2782 79.77764 9.5444 -3.70607 -8.18569 -0.72233 -54.35944 99.17924 -99.53003 33.89152 0.94746 48.53337 0.58829 -17.83506 -26.89466 -6.57637 -0.60565 -2.54409 28.96817 13.4516 -5.15856 -46.65904 -8.18182 2.73933 3.6436
-0.77154 -0.0104 -0.04609 183.52809 -35.88793 -7.92295 41.04263 2.10232 -19.33245 9.2714 -0.16149 -2.11994 -5.48299 -72.46717 -24.15563 34.0881 79.83534 9.30133 -3.92557 -8.5199 -0.52131 -54.36183 99.36405 -99.81308 34.03367 0.92424 47.02831 1.11835 -16.9657 -25.71769 -6.49692 -0.72423 -2.59987 31.69559 13.07227 -4.72195 -50.44213 -8.05952 2.94888 3.74016
-0.78242 -0.00884 -0.04857 184.10784 -35.70516 -7.84498 40.7235 2.26891 -18.95162 9.2681 -0.62346 -2.11994 -5.24112 -72.62862 -23.95735 33.92562 79.96522 9.08834 -4.08771 -8.82214 -0.32337 -54.36773 99.56178 -100.10718 34.14131 0.89753 45.44185 1.64711 -16.36302 -24.52492 -6.42527 -0.82139 -2.64535 34.35509 12.78948 -4.39879 -54.34487 -7.98491 3.13797 3.82898
-0.79337 -0.00723 -0.05119 184.70375 -35.50007 -7.77962 40.38118 2.44616 -18.60111 9.26794 -1.05284 -2.11994 -4.94339 -72.77718 -23.75895 33.7359 80.08332 8.86407 -4.30363 -9.16045 -0.10497 -54.35064 99.77913 -100.41553 34.26539 0.87101 43.83718 2.21727 -15.65607 -23.34484 -6.34391 -0.93042 -2.69648 37.08448 12.45294 -4.25709 -58.69897 -7.91143 3.35722 3.93269
-0.80394 -0.00579 -0.05341 185.28395 -35.35506 -7.66273 40.07862 2.5877 -18.17311 9.26521 -1.57319 -2.11994 -4.74596 -72.98428 -23.51937 33.5914 80.1868 8.64909 -4.43212 -9.43703 0.06832 -54.38097 99.94547 -100.68505 34.37164 0.84609 42.31735 2.69729 -15.03802 -22.14807 -6.27935 -1.0262 -2.7414 39.68707 12.17931 -3.66824 -61.97557 -7.81124 3.5213 4.00796
-0.81379 -0.00468 -0.05471 185.79268 -35.36009 -7.42458 39.89535 2.6419 -17.53634 9.24532 -2.32081 -2.11994 -4.83972 -73.31599 -23.19257 33.58443 80.30125 8.47383 -4.28089 -9.52183 0.13272 -54.55067 99.98609 -100.85999 34.39877 0.82299 40.99007 2.92372 -14.80565 -20.91332 -6.26713 -1.06678 -2.76006 41.91997 12.18517 -1.8141 -62.47404 -7.65187 3.51923 3.99859
-0.8233 -0.00374 -0.05561 186.28481 -35.4243 -7.13978 39.7536 2.66253 -16.82643 9.22403 -3.15553 -2.11994 -5.03528 -73.70236 -22.83115 33.62404 80.40307 8.31003 -4.04075 -9.54463 0.1492 -54.76574 99.9755 -100.995 34.40742 0.80152 39.74244 3.06175 -14.67439 -19.66092 -6.26943 -1.09991 -2.77547 44.01501 12.25089 0.45709 -61.88459 -7.47086 3.46181 3.96095
-0.83297 -0.00276 -0.05666 186.79098 -35.46307 -6.88014 39.59283 2.70029 -16.15742 9.2076 -3.94939 -2.11994 -5.18424 -74.06633 -22.49493 33.64132 80.49959 8.14166 -3.85074 -9.6017 0.17761 -54.9535 99.98412 -101.14461 34.43272 0.7798 38.45772 3.24574 -14.49633 -18.41077 -6.26607 -1.135 -2.79163 46.16176 12.24851 2.45921 -61.73293 -7.30712 3.43427 3.93886
-0.84259 -0.00164 -0.05784 187.27213 -35.4974 -6.59919 39.43112 2.72832 -15.45287 9.17255 -4.75321 -2.11994 -5.33462 -74.42523 -22.11559 33.66224 80.63568 7.96902 -3.62357 -9.63446 0.24681 -55.17016 100.00807 -101.30957 34.42606 0.75597 37.18352 3.4038 -14.32309 -17.18612 -6.26775 -1.15429 -2.79983 48.35942 12.40803 4.80458 -61.80047 -7.10928 3.38821 3.9059
-0.85224 -0.00086 -0.05865 187.80069 -35.55455 -6.35391 39.28202 2.7692 -14.80687 9.1773 -5.55443 -2.11994 -5.50451 -74.80526 -21.81677 33.68685 80.69068 7.80808 -3.45081 -9.70287 0.22059 -55.33678 99.98908 -101.43176 34.48014 0.73718 35.90335 3.59622 -14.14593 -15.90303 -6.25074 -1.23329 -2.83825 50.41682 12.25233 6.53555 -61.16419 -6.97751 3.36665 3.88844
-0.86202 -0.00094 -0.05858 188.46181 -35.65809 -6.21143 39.15563 2.85538 -14.33191 9.27928 -6.33647 -2.11994 -5.72465 -75.23509 -21.77747 33.7141 80.5044 7.6833 -3.45477 -9.8809 -0.06499 -55.35877 99.85857 -101.46096 34.71092 0.72877 34.59287 3.89559 -14.15705 -14.47388 -6.28368 -1.22117 -2.83073 52.11588 11.1668 6.41331 -58.80908 -7.04456 3.43099 3.92361
-0.87186 -0.00138 -0.05814 189.171 -35.78266 -6.10852 39.04125 2.9556 -13.92015 9.4236 -7.11049 -2.11994 -5.95738 -75.68252 -21.81632 33.74322 80.24124 7.56912 -3.51519 -10.09707 -0.44341 -55.32811 99.68784 -101.44639 35.00246 0.72584 33.27236 4.23441 -14.1278 -12.98619 -6.28072 -1.3111 -2.87465 53.67829 9.77158 5.6666 -55.79491 -7.17765 3.52103 3.97486
-0.8817 -0.00169 -0.05784 189.85977 -35.89878 -5.99249 38.92258 3.04864 -13.4856 9.55723 -7.88168 -2.11994 -6.17042 -76.1183 -21.80079 33.76888 80.02777 7.44583 -3.54615 -10.29857 -0.77446 -55.31825 99.53926 -101.44114 35.26272 0.72255 31.95093 4.56164 -13.96508 -11.51583 -6.22156 -1.53114 -2.98451 55.30618 8.54804 5.24004 -53.10982 -7.27333 3.59585 4.01667
-0.89139 -0.00188 -0.05765 190.54321 -36.01246 -5.85351 38.79955 3.14394 -13.02412 9.65533 -8.68377 -2.11994 -6.44525 -76.57235 -21.86167 33.80614 79.75259 7.34036 -3.59008 -10.48815 -1.12948 -55.32245 99.37243 -101.47656 35.53718 0.71068 30.65269 4.85927 -14.4211 -10.07678 -6.45682 -1.03153 -2.73075 56.91677 7.19459 4.67548 -50.25472 -7.39801 3.68303 4.0661
-0.90143 -0.0024 -0.05713 191.24783 -36.13526 -5.77326 38.68898 3.23822 -12.63381 9.83671 -9.4179 -2.11994 -6.59395 -76.99074 -21.78481 33.82034 79.58647 7.20097 -3.62162 -10.71058 -1.45546 -55.28519 99.23488 -101.42059 35.79757 0.71751 29.30628 5.22875 -13.6094 -8.5679 -6.08547 -2.02295 -3.2296 58.53061 6.03902 4.24366 -47.62018 -7.48006 3.75214 4.10436
-0.91237 -0.0037 -0.05586 192.01223 -36.27948 -5.83768 38.60147 3.32689 -12.43247 10.24452 -9.97033 -2.11994 -6.3832 -77.31467 -21.28925 33.7599 79.75254 6.95849 -3.60483 -11.02982 -1.68265 -55.13822 99.18683 -101.09575 35.99676 0.77853 27.79798 5.7897 -9.03192 -6.80285 -3.91412 -7.38427 -5.94081 60.20315 5.4923 4.33738 -45.68652 -7.41314 3.75765 4.10332
-0.92369 -0.00533 -0.05424 192.79389 -36.43174 -5.96126 38.52787 3.4138 -12.29931 10.73329 -10.45335 -2.11994 -6.04628 -77.60006 -20.65665 33.67807 80.02883 6.68294 -3.5741 -11.37777 -1.87628 -54.95274 99.16998 -100.68574 36.18112 0.85744 26.24691 6.42118 -3.22997 -4.98395 -1.15728 -14.19093 -9.38051 61.87972 5.15778 4.58352 -44.01578 -7.30413 3.74563 4.09142
-0.93489 -0.00684 -0.05274 193.5592 -36.57892 -6.06348 38.45271 3.5017 -12.13036 11.18063 -10.96525 -2.11994 -5.77167 -77.89762 -20.09896 33.61253 80.24666 6.42664 -3.55041 -11.70336 -2.0825 -54.78986 99.14006 -100.33271 36.37731 0.9256 24.73566 7.01943 1.8302 -3.24098 1.24247 -20.15373 -12.39013 63.54643 4.73434 4.75292 -42.27611 -7.22425 3.74691 4.08765
-0.94587 -0.00823 -0.05141 194.3622 -36.73229 -6.14487 38.35622 3.59058 -11.98456 11.64944 -11.48863 -2.11994 -5.47578 -78.21924 -19.48863 33.5188 80.49697 6.15196 -3.52572 -12.07146 -2.30376 -54.6032 99.10458 -99.90089 36.55431 1.005 23.13841 7.62533 7.67008 -1.2795 4.02307 -26.90921 -15.81855 65.24869 4.26772 4.92996 -40.30049 -7.10386 3.72697 4.07113
-0.95739 -0.00996 -0.04964 195.09004 -36.87518 -6.28173 38.30941 3.67516 -11.80505 12.09168 -11.97115 -2.11994 -5.19506 -78.48029 -18.9569 33.47936 80.707 5.90872 -3.49901 -12.35495 -2.48384 -54.45818 99.08795 -99.61365 36.76672 1.06515 21.70982 8.22983 12.18123 0.23985 6.1548 -32.3561 -18.5483 66.87149 3.94632 5.13835 -38.886 -7.0577 3.74618 4.07814
-0.97017 -0.0125 -0.04681 195.6085 -36.97979 -6.56902 38.37772 3.76198 -11.52387 12.44522 -12.36263 -2.11994 -4.98004 -78.59189 -18.65536 33.58964 80.77774 5.75079 -3.47047 -12.4176 -2.56415 -54.43232 99.12 -99.74348 37.08152 1.06819 20.76142 8.8272 12.6702 0.51514 6.30242 -33.81846 -19.15292 68.34335 3.96824 5.37436 -38.97478 -7.21944 3.88256 4.1547
